# xmcd
# 
# Track frame offsets:
#     150
#     47092
#     86130
#     134465
#     167845
#     214755
#     248675
# 
# Disc length: 3897
# 
# Revision: 0
# Processed by: cddbd v1.5.2PL0 Copyright (c) Steve Scherf et al.
# Submitted via: BonkEnc v1.0.8
# 
DISCID=5f0f3707
DTITLE=Håkon  Broström - Still Dreaming
DYEAR=1995
DGENRE=Contemporary Jazz
TTITLE0=Three-Year Old Cowboy
TTITLE1=Untold Tales
TTITLE2=Still Dreaming
TTITLE3=Carmilla
TTITLE4=Relatives
TTITLE5=Where Were You?
TTITLE6=Forgotten Memories
EXTD=
EXTT0=
EXTT1=
EXTT2=
EXTT3=
EXTT4=
EXTT5=
EXTT6=
PLAYORDER=
